<svg xmlns="http://www.w3.org/2000/svg" width="860" height="260" viewBox="0 0 860 260" role="img" aria-labelledby="title desc">
  <title id="title">Language usage card for Arik Chakraborty</title>
  <desc id="desc">A self-hosted card showing public language usage by bytes and repository count.</desc>
  <rect width="860" height="260" rx="22" fill="#130f0c" />
  <rect x="1" y="1" width="858" height="258" rx="21" fill="none" stroke="#2d221c" />
  
  <text x="36" y="38" fill="#b39b84" font-size="12" letter-spacing="1.1">LANGUAGES / PUBLIC REPOSITORIES</text>
  <text x="46" y="64" fill="#f4e6d6" font-size="16" font-weight="700">by bytes pushed</text>
  <text x="46" y="72" fill="#f4e6d6" font-size="14">Jupyter Notebook</text><rect x="46" y="78" width="320" height="10" rx="5" fill="#8d5a34" opacity="0.32" /><rect x="46" y="78" width="320.00" height="10" rx="5" fill="#d49a66" /><text x="380" y="87" fill="#b39b84" font-size="12">92.9%</text><text x="46" y="102" fill="#f4e6d6" font-size="14">Python</text><rect x="46" y="108" width="320" height="10" rx="5" fill="#8d5a34" opacity="0.32" /><rect x="46" y="108" width="12.67" height="10" rx="5" fill="#d49a66" /><text x="380" y="117" fill="#b39b84" font-size="12">3.7%</text><text x="46" y="132" fill="#f4e6d6" font-size="14">TypeScript</text><rect x="46" y="138" width="320" height="10" rx="5" fill="#8d5a34" opacity="0.32" /><rect x="46" y="138" width="10.24" height="10" rx="5" fill="#d49a66" /><text x="380" y="147" fill="#b39b84" font-size="12">3.0%</text><text x="46" y="162" fill="#f4e6d6" font-size="14">HTML</text><rect x="46" y="168" width="320" height="10" rx="5" fill="#8d5a34" opacity="0.32" /><rect x="46" y="168" width="0.84" height="10" rx="5" fill="#d49a66" /><text x="380" y="177" fill="#b39b84" font-size="12">0.2%</text><text x="46" y="192" fill="#f4e6d6" font-size="14">CSS</text><rect x="46" y="198" width="320" height="10" rx="5" fill="#8d5a34" opacity="0.32" /><rect x="46" y="198" width="0.64" height="10" rx="5" fill="#d49a66" /><text x="380" y="207" fill="#b39b84" font-size="12">0.2%</text>
  <text x="470" y="64" fill="#f4e6d6" font-size="16" font-weight="700">by repo count</text>
  <rect x="470" y="82" width="144" height="28" rx="14" fill="#1b1511" stroke="#2d221c" /><text x="484" y="101" fill="#f4e6d6" font-size="13">Python</text><text x="588" y="101" fill="#d49a66" font-size="13" text-anchor="end">14</text><rect x="634" y="82" width="144" height="28" rx="14" fill="#1b1511" stroke="#2d221c" /><text x="648" y="101" fill="#f4e6d6" font-size="13">Jupyter Notebook</text><text x="752" y="101" fill="#d49a66" font-size="13" text-anchor="end">4</text><rect x="470" y="120" width="144" height="28" rx="14" fill="#1b1511" stroke="#2d221c" /><text x="484" y="139" fill="#f4e6d6" font-size="13">TypeScript</text><text x="588" y="139" fill="#d49a66" font-size="13" text-anchor="end">1</text><rect x="634" y="120" width="144" height="28" rx="14" fill="#1b1511" stroke="#2d221c" /><text x="648" y="139" fill="#f4e6d6" font-size="13">HTML</text><text x="752" y="139" fill="#d49a66" font-size="13" text-anchor="end">1</text>

</svg>
